<svg xmlns="http://www.w3.org/2000/svg" viewBox="0 0 627 358" width="627" height="358" role="img" aria-label="elibabah logo"><path fill-rule="evenodd" fill="#fafafa" d="M103.02 9.87L112.37 9.46L261.47 9.50L264.88 10.07L267.30 12.53L283.45 49.70L286.00 51.90L322.40 12.08L325.21 10.03L328.65 9.54L525.15 9.74L537.55 11.22L547.20 13.83L558.54 19.05L568.80 26.14L577.75 34.84L582.30 40.79L586.24 47.18L588.47 51.65L591.11 58.66L593.12 65.89L594.32 73.28L594.56 130.78L594.05 138.23L592.52 145.57L590.22 152.66L586.93 159.66L582.35 167.19L581.54 170.45L583.63 173.20L591.71 181.39L597.94 189.21L604.61 199.78L610.06 211.02L614.06 222.86L616.14 232.62L617.51 245.04L616.82 257.48L615.25 267.34L613.47 274.63L610.31 284.11L607.32 290.99L603.73 297.56L598.23 305.91L588.76 317.52L581.41 324.26L573.54 330.43L567.20 334.42L558.37 339.13L551.47 342.04L541.95 345.10L527.23 347.85L514.78 348.54L368.26 348.50L364.82 348.06L362.47 345.54L359.89 340.08L346.69 308.22L345.03 305.21L342.22 307.27L339.91 309.74L308.49 344.84L306.02 347.28L302.73 348.35L101.23 348.33L88.92 346.33L79.42 343.26L70.41 338.92L62.18 333.27L51.45 322.80L45.50 314.78L40.84 305.95L36.93 294.08L35.96 289.18L35.45 281.71L35.75 219.22L38.18 207.02L40.90 199.79L45.04 192.00L45.36 188.69L43.36 185.87L33.48 175.84L28.87 170.02L22.44 159.30L17.05 148.02L13.11 136.17L10.59 123.93L9.42 111.51L10.05 101.55L11.55 91.67L13.23 84.36L15.56 77.24L19.41 68.01L24.26 59.28L29.81 50.97L34.52 45.14L39.69 39.72L45.07 34.48L50.84 29.72L59.11 24.10L67.89 19.33L74.77 16.35L81.87 13.95L91.66 11.57L100.92 10.11ZM249.11 79.97L254.93 79.42L258.13 80.72L256.92 83.98L202.95 143.62L200.20 145.75L196.79 146.41L110.25 146.57L104.85 146.01L99.00 144.63L92.97 141.11L88.52 136.99L83.15 130.27L81.41 127.42L80.16 124.16L78.66 116.81L78.40 113.31L78.87 109.97L80.83 102.12L82.89 97.55L85.63 93.34L91.28 87.57L96.96 83.72L100.09 82.09L108.68 80.54L238.87 80.55L246.44 80.21ZM359.25 81.00L362.69 80.53L374.20 80.50L518.23 80.50L521.67 80.97L523.42 83.80L523.57 95.30L524.52 107.72L524.50 141.75L523.42 144.99L520.33 146.39L519.10 146.41L392.29 146.50L388.96 147.35L386.13 149.38L272.15 276.02L269.40 278.07L257.12 278.50L110.40 278.50L107.33 277.13L106.60 273.74L106.65 216.94L106.70 215.72L108.61 212.92L120.89 212.50L235.11 212.50L238.54 212.04L242.25 209.19L349.54 90.29L357.60 82.10ZM428.25 213.00L431.69 212.53L515.72 212.45L520.69 212.90L525.52 214.11L532.28 217.36L538.12 222.05L541.32 225.88L543.95 230.15L546.66 237.12L547.49 242.04L547.61 247.06L546.52 254.46L543.66 261.38L539.22 267.40L535.59 270.87L531.55 273.83L527.10 276.07L522.32 277.48L512.38 278.50L373.36 278.45L370.83 276.42L372.56 273.41L426.73 213.95Z"></path></svg>